<?xml version="1.0" encoding="UTF-8"?>
<!DOCTYPE svg PUBLIC "-//W3C//DTD SVG 1.1//EN" "http://www.w3.org/Graphics/SVG/1.1/DTD/svg11.dtd">
<svg xmlns="http://www.w3.org/2000/svg" version="1.1" width="600px" height="600px" style="shape-rendering:geometricPrecision; text-rendering:geometricPrecision; image-rendering:optimizeQuality; fill-rule:evenodd; clip-rule:evenodd" xmlns:xlink="http://www.w3.org/1999/xlink">
<g><path style="opacity:1" fill="#fefdfd" d="M 274.5,-0.5 C 291.167,-0.5 307.833,-0.5 324.5,-0.5C 373.458,3.90735 418.625,19.2407 460,45.5C 460.333,45.1667 460.667,44.8333 461,44.5C 464.212,47.8529 467.712,50.8529 471.5,53.5C 472.29,54.4013 473.29,55.0679 474.5,55.5C 485.782,62.7186 496.449,71.3853 506.5,81.5C 507.413,83.0861 507.413,84.5861 506.5,86C 510.511,85.8149 512.511,87.6482 512.5,91.5C 514.216,91.6287 515.883,91.962 517.5,92.5C 565.458,143.758 592.791,204.425 599.5,274.5C 599.5,291.167 599.5,307.833 599.5,324.5C 589.901,415.037 549.067,488.037 477,543.5C 476.23,542.402 475.397,542.402 474.5,543.5C 473.29,543.932 472.29,544.599 471.5,545.5C 467.712,548.147 464.212,551.147 461,554.5C 460.667,554.167 460.333,553.833 460,553.5C 456.89,555.636 453.723,557.636 450.5,559.5C 448.62,559.229 447.287,559.896 446.5,561.5C 420.953,576.085 393.62,586.585 364.5,593C 351.091,595.603 337.758,597.77 324.5,599.5C 307.833,599.5 291.167,599.5 274.5,599.5C 253.144,597.362 232.144,593.028 211.5,586.5C 209.562,584.837 207.228,584.171 204.5,584.5C 173.491,574.843 145.825,560.51 121.5,541.5C 120.415,539.413 118.749,538.08 116.5,537.5C 108.611,532.617 101.611,526.617 95.5,519.5C 94.0892,517.086 92.0892,515.419 89.5,514.5C 36.6921,462.127 6.69214,398.794 -0.5,324.5C -0.5,307.833 -0.5,291.167 -0.5,274.5C 5.8163,205.834 32.483,145.834 79.5,94.5C 83.145,92.8551 85.8116,90.1884 87.5,86.5C 90.7642,84.9059 93.4309,82.5725 95.5,79.5C 132.131,44.66 175.464,20.8266 225.5,8C 241.825,4.28005 258.159,1.44672 274.5,-0.5 Z"/></g>
<g><path style="opacity:1" fill="#f2f2f2" d="M 390.5,77.5 C 388.697,76.9536 387.03,76.1203 385.5,75C 351.167,74.6667 316.833,74.3333 282.5,74C 280.9,68.993 279.733,63.8263 279,58.5C 274.99,53.7496 269.824,51.5829 263.5,52C 252.368,50.9217 241.368,51.5883 230.5,54C 224.988,59.208 222.321,65.708 222.5,73.5C 206.454,73.5453 199.12,81.5453 200.5,97.5C 193.016,96.6572 186.516,98.6572 181,103.5C 179.438,105.957 178.438,108.624 178,111.5C 177.5,122.161 177.333,132.828 177.5,143.5C 167.161,143.334 156.828,143.5 146.5,144C 145.376,144.249 144.376,144.749 143.5,145.5C 145.045,146.452 146.712,146.785 148.5,146.5C 146.343,147.407 144.01,148.073 141.5,148.5C 142.886,146.24 142.219,145.406 139.5,146C 133.819,148.686 130.985,153.186 131,159.5C 130.333,175.833 130.333,192.167 131,208.5C 132.145,211.432 132.978,214.432 133.5,217.5C 131.228,216.277 130.061,214.277 130,211.5C 129.036,191.435 129.37,171.435 131,151.5C 132.822,148.679 134.989,146.179 137.5,144C 140.167,143.333 142.833,142.667 145.5,142C 155.104,141.714 164.437,141.214 173.5,140.5C 174.167,139.833 174.833,139.167 175.5,138.5C 175.489,129.304 175.489,120.137 175.5,111C 178.303,100.619 184.969,95.6192 195.5,96C 198.53,91.8661 200.196,87.1994 200.5,82C 205.592,74.8001 212.592,71.3001 221.5,71.5C 220.792,63.1089 223.792,56.6089 230.5,52C 234.141,50.7305 237.808,49.5639 241.5,48.5C 243.163,49.8754 244.497,49.542 245.5,47.5C 246.192,48.0253 246.692,48.6919 247,49.5C 258.828,46.999 269.828,48.999 280,55.5C 281,59.8333 282,64.1667 283,68.5C 283.5,70.3333 284.667,71.5 286.5,72C 318.833,72.3333 351.167,72.6667 383.5,73C 385.329,73.2735 386.829,74.1068 388,75.5C 391.123,73.9022 391.956,74.5689 390.5,77.5 Z"/></g>
<g><path style="opacity:1" fill="#a28c67" d="M 471.5,53.5 C 473.179,53.2852 474.179,53.9519 474.5,55.5C 473.29,55.0679 472.29,54.4013 471.5,53.5 Z"/></g>
<g><path style="opacity:1" fill="#c9b3a0" d="M 95.5,79.5 C 93.4309,82.5725 90.7642,84.9059 87.5,86.5C 89.5691,83.4275 92.2358,81.0941 95.5,79.5 Z"/></g>
<g><path style="opacity:1" fill="#fdfdfd" d="M 415.5,111.5 C 414.5,111.5 413.5,111.5 412.5,111.5C 412.161,121.861 410.828,121.861 408.5,111.5C 399.521,112.266 390.521,112.599 381.5,112.5C 381.825,105.313 381.491,98.3134 380.5,91.5C 380.167,91.5 379.833,91.5 379.5,91.5C 379.5,91.1667 379.5,90.8333 379.5,90.5C 341.67,89.5015 303.67,89.1682 265.5,89.5C 265.666,83.1579 265.5,76.8246 265,70.5C 264.722,69.5842 264.222,68.9175 263.5,68.5C 261.708,67.6909 259.708,67.1909 257.5,67C 256.167,66 256.167,65 257.5,64C 256.333,63.8333 255.167,63.6667 254,63.5C 251.328,63.2543 249.828,63.921 249.5,65.5C 248.446,65.3201 247.446,64.9867 246.5,64.5C 244.271,65.5771 241.937,66.2437 239.5,66.5C 239.5,74.1667 239.5,81.8333 239.5,89.5C 232.492,89.3337 225.492,89.5004 218.5,90C 217.944,90.3826 217.611,90.8826 217.5,91.5C 216.833,91.5 216.5,91.8333 216.5,92.5C 215.842,93.3984 215.176,94.3984 214.5,95.5C 214.167,98.1667 213.833,100.833 213.5,103.5C 213.562,106.613 214.229,109.446 215.5,112C 207.547,112.567 199.547,112.401 191.5,111.5C 191.383,113.484 192.05,115.15 193.5,116.5C 192.517,123.179 191.85,129.679 191.5,136C 192.448,136.483 193.448,136.649 194.5,136.5C 194.5,136.833 194.5,137.167 194.5,137.5C 194.5,145.167 194.5,152.833 194.5,160.5C 186.833,160.5 179.167,160.5 171.5,160.5C 163.833,160.5 156.167,160.5 148.5,160.5C 148.5,175.833 148.5,191.167 148.5,206.5C 179.167,206.5 209.833,206.5 240.5,206.5C 240.5,199.5 240.5,192.5 240.5,185.5C 240.5,184.833 240.5,184.167 240.5,183.5C 241.492,176.018 241.825,168.352 241.5,160.5C 256.5,160.5 271.5,160.5 286.5,160.5C 286.175,168.352 286.508,176.018 287.5,183.5C 294.313,184.491 301.313,184.825 308.5,184.5C 308.5,199.167 308.5,213.833 308.5,228.5C 301.313,228.175 294.313,228.509 287.5,229.5C 286.169,236.97 285.502,244.804 285.5,253C 285.667,260.833 285.833,268.667 286,276.5C 293.413,277.481 300.913,277.814 308.5,277.5C 308.175,284.687 308.509,291.687 309.5,298.5C 309.5,299.167 309.833,299.5 310.5,299.5C 317.313,300.491 324.313,300.825 331.5,300.5C 331.5,338.167 331.5,375.833 331.5,413.5C 316.833,413.5 302.167,413.5 287.5,413.5C 287.5,405.833 287.5,398.167 287.5,390.5C 279.5,390.5 271.5,390.5 263.5,390.5C 263.5,398.167 263.5,405.833 263.5,413.5C 256.313,413.175 249.313,413.509 242.5,414.5C 242.167,414.5 241.833,414.5 241.5,414.5C 242.132,406.427 241.465,398.76 239.5,391.5C 239.5,391.167 239.5,390.833 239.5,390.5C 233.021,389.509 226.354,389.176 219.5,389.5C 220.957,373.858 222.29,358.191 223.5,342.5C 218.167,341.167 212.833,341.167 207.5,342.5C 207.5,341.5 207.5,340.5 207.5,339.5C 210.32,339.752 212.986,339.252 215.5,338C 210.833,337.333 206.167,337.333 201.5,338C 204.106,338.45 205.439,339.95 205.5,342.5C 202.565,342.283 199.731,341.617 197,340.5C 194.825,340.834 192.992,341.834 191.5,343.5C 192.484,358.785 192.817,374.118 192.5,389.5C 177.83,389.333 163.163,389.5 148.5,390C 147.708,392.336 146.375,392.836 144.5,391.5C 143.513,394.768 143.18,398.102 143.5,401.5C 122.218,401.508 122.218,402.174 143.5,403.5C 143.5,405.167 143.5,406.833 143.5,408.5C 137.786,409.262 132.12,409.262 126.5,408.5C 125.252,409.04 124.085,409.707 123,410.5C 122,408.833 121,407.167 120,405.5C 117.066,407.882 117.566,409.882 121.5,411.5C 122.705,412.995 122.705,414.328 121.5,415.5C 121.44,414.957 121.107,414.624 120.5,414.5C 119.67,420.138 119.17,425.804 119,431.5C 118.667,425.167 118.333,418.833 118,412.5C 117.751,413.624 117.251,414.624 116.5,415.5C 115.639,413.089 114.306,411.089 112.5,409.5C 113.723,407.128 114.723,404.628 115.5,402C 121.564,399.401 127.898,398.234 134.5,398.5C 134.334,393.821 134.501,389.155 135,384.5C 136.62,382.759 138.12,380.925 139.5,379C 152.622,375.9 165.956,374.733 179.5,375.5C 179.333,364.828 179.5,354.161 180,343.5C 180.315,341.414 180.815,339.414 181.5,337.5C 182.364,336.312 183.364,335.145 184.5,334C 187.942,332.816 191.275,331.65 194.5,330.5C 196.948,329.527 199.615,329.194 202.5,329.5C 202.5,316.5 202.5,303.5 202.5,290.5C 197.141,290.33 191.808,289.83 186.5,289C 185.421,288.044 184.255,287.211 183,286.5C 182.355,283.441 181.522,280.441 180.5,277.5C 179.5,259.179 179.167,240.845 179.5,222.5C 166.724,223.025 154.058,222.192 141.5,220C 137.317,217.827 135.151,214.327 135,209.5C 134.333,192.5 134.333,175.5 135,158.5C 135.088,153.636 137.254,150.303 141.5,148.5C 144.01,148.073 146.343,147.407 148.5,146.5C 158.653,145.506 168.986,145.172 179.5,145.5C 179.333,134.828 179.5,124.161 180,113.5C 181.314,110.599 182.48,107.599 183.5,104.5C 189.482,101.801 195.816,100.301 202.5,100C 203.303,95.5855 203.803,91.0855 204,86.5C 204.536,84.1311 205.703,82.1311 207.5,80.5C 213.304,78.4216 219.304,77.4216 225.5,77.5C 225.295,69.7903 227.295,62.7903 231.5,56.5C 245.571,53.6999 259.571,53.8665 273.5,57C 278.005,62.6831 280.005,69.1831 279.5,76.5C 312.84,76.1668 346.173,76.5001 379.5,77.5C 383.635,78.1532 387.469,79.4865 391,81.5C 392.807,87.3689 393.641,93.3689 393.5,99.5C 400.044,99.7914 406.377,101.125 412.5,103.5C 414.287,105.858 415.287,108.525 415.5,111.5 Z"/></g>
<g><path style="opacity:1" fill="#ddcfc1" d="M 506.5,81.5 C 510.833,84.5 514.5,88.1667 517.5,92.5C 515.883,91.962 514.216,91.6287 512.5,91.5C 512.511,87.6482 510.511,85.8149 506.5,86C 507.413,84.5861 507.413,83.0861 506.5,81.5 Z"/></g>
<g><path style="opacity:1" fill="#c9b29c" d="M 87.5,86.5 C 85.8116,90.1884 83.145,92.8551 79.5,94.5C 81.8815,91.4517 84.5482,88.7851 87.5,86.5 Z"/></g>
<g><path style="opacity:1" fill="#f78c0a" d="M 240.5,91.5 C 240.833,91.5 241.167,91.5 241.5,91.5C 248.833,91.5 256.167,91.5 263.5,91.5C 263.833,91.5 264.167,91.5 264.5,91.5C 302.33,92.4985 340.33,92.8318 378.5,92.5C 378.5,99.8333 378.5,107.167 378.5,114.5C 363.167,114.5 347.833,114.5 332.5,114.5C 317.22,114.287 301.887,114.287 286.5,114.5C 285.992,122.133 285.992,129.466 286.5,136.5C 270.991,136.17 255.658,136.504 240.5,137.5C 240.5,144.833 240.5,152.167 240.5,159.5C 239.833,159.5 239.5,159.833 239.5,160.5C 232.167,160.5 224.833,160.5 217.5,160.5C 217.5,153.167 217.5,145.833 217.5,138.5C 217.5,138.167 217.5,137.833 217.5,137.5C 210.963,136.799 204.297,136.132 197.5,135.5C 196.504,129.537 196.171,123.537 196.5,117.5C 196.611,116.883 196.944,116.383 197.5,116C 204.346,115.828 211.013,115.328 217.5,114.5C 218.073,107.574 218.906,100.574 220,93.5C 226.932,92.8496 233.766,92.183 240.5,91.5 Z"/></g>
<g><path style="opacity:1" fill="#dcdcdc" d="M 390.5,77.5 C 391.458,78.9616 392.624,80.2949 394,81.5C 395.359,86.4645 396.526,91.4645 397.5,96.5C 405.851,96.6781 412.851,99.6781 418.5,105.5C 419.126,117.847 419.793,130.18 420.5,142.5C 424.384,143.841 428.384,144.675 432.5,145C 436.251,146.415 439.084,148.915 441,152.5C 441.908,157.029 442.741,161.529 443.5,166C 449.398,166.724 455.064,168.224 460.5,170.5C 464.752,176.06 466.752,182.394 466.5,189.5C 474.752,188.218 481.252,190.884 486,197.5C 486.667,200.167 487.333,202.833 488,205.5C 488.5,215.494 488.666,225.494 488.5,235.5C 493.699,235.078 498.366,236.245 502.5,239C 499.881,238.917 497.214,238.75 494.5,238.5C 491.833,238.5 489.167,238.5 486.5,238.5C 486.667,227.162 486.5,215.828 486,204.5C 485.684,198.94 482.85,195.44 477.5,194C 472.617,192.414 467.617,191.581 462.5,191.5C 463.013,185.593 462.18,179.927 460,174.5C 458.421,172.959 456.587,171.792 454.5,171C 449.576,170.441 444.742,169.607 440,168.5C 440.291,161.647 438.791,155.314 435.5,149.5C 429.727,147.389 423.727,146.389 417.5,146.5C 418.074,134.651 417.408,122.984 415.5,111.5C 415.287,108.525 414.287,105.858 412.5,103.5C 406.377,101.125 400.044,99.7914 393.5,99.5C 393.641,93.3689 392.807,87.3689 391,81.5C 387.469,79.4865 383.635,78.1532 379.5,77.5C 346.173,76.5001 312.84,76.1668 279.5,76.5C 280.005,69.1831 278.005,62.6831 273.5,57C 259.571,53.8665 245.571,53.6999 231.5,56.5C 227.295,62.7903 225.295,69.7903 225.5,77.5C 219.304,77.4216 213.304,78.4216 207.5,80.5C 205.703,82.1311 204.536,84.1311 204,86.5C 203.803,91.0855 203.303,95.5855 202.5,100C 195.816,100.301 189.482,101.801 183.5,104.5C 182.48,107.599 181.314,110.599 180,113.5C 179.5,124.161 179.333,134.828 179.5,145.5C 168.986,145.172 158.653,145.506 148.5,146.5C 146.712,146.785 145.045,146.452 143.5,145.5C 144.376,144.749 145.376,144.249 146.5,144C 156.828,143.5 167.161,143.334 177.5,143.5C 177.333,132.828 177.5,122.161 178,111.5C 178.438,108.624 179.438,105.957 181,103.5C 186.516,98.6572 193.016,96.6572 200.5,97.5C 199.12,81.5453 206.454,73.5453 222.5,73.5C 222.321,65.708 224.988,59.208 230.5,54C 241.368,51.5883 252.368,50.9217 263.5,52C 269.824,51.5829 274.99,53.7496 279,58.5C 279.733,63.8263 280.9,68.993 282.5,74C 316.833,74.3333 351.167,74.6667 385.5,75C 387.03,76.1203 388.697,76.9536 390.5,77.5 Z"/></g>
<g><path style="opacity:1" fill="#e7aa5b" d="M 217.5,91.5 C 225.167,91.5 232.833,91.5 240.5,91.5C 233.766,92.183 226.932,92.8496 220,93.5C 218.906,100.574 218.073,107.574 217.5,114.5C 217.5,106.833 217.5,99.1667 217.5,91.5 Z"/></g>
<g><path style="opacity:1" fill="#fdfbea" d="M 216.5,92.5 C 216.5,99.5 216.5,106.5 216.5,113.5C 208.981,113.175 201.648,113.508 194.5,114.5C 194.5,121.833 194.5,129.167 194.5,136.5C 193.448,136.649 192.448,136.483 191.5,136C 191.85,129.679 192.517,123.179 193.5,116.5C 192.05,115.15 191.383,113.484 191.5,111.5C 199.547,112.401 207.547,112.567 215.5,112C 214.229,109.446 213.562,106.613 213.5,103.5C 213.833,100.833 214.167,98.1667 214.5,95.5C 215.176,94.3984 215.842,93.3984 216.5,92.5 Z"/></g>
<g><path style="opacity:1" fill="#e8a24f" d="M 264.5,91.5 C 302.833,91.5 341.167,91.5 379.5,91.5C 379.5,99.1667 379.5,106.833 379.5,114.5C 379.167,114.5 378.833,114.5 378.5,114.5C 378.5,107.167 378.5,99.8333 378.5,92.5C 340.33,92.8318 302.33,92.4985 264.5,91.5 Z"/></g>
<g><path style="opacity:1" fill="#fdeab6" d="M 263.5,71.5 C 264.49,77.6446 264.823,83.9779 264.5,90.5C 302.833,90.5 341.167,90.5 379.5,90.5C 379.5,90.8333 379.5,91.1667 379.5,91.5C 341.167,91.5 302.833,91.5 264.5,91.5C 264.167,91.5 263.833,91.5 263.5,91.5C 263.5,91.1667 263.5,90.8333 263.5,90.5C 263.5,84.1667 263.5,77.8333 263.5,71.5 Z"/></g>
<g><path style="opacity:1" fill="#fcfdea" d="M 263.5,68.5 C 264.222,68.9175 264.722,69.5842 265,70.5C 265.5,76.8246 265.666,83.1579 265.5,89.5C 303.67,89.1682 341.67,89.5015 379.5,90.5C 341.167,90.5 302.833,90.5 264.5,90.5C 264.823,83.9779 264.49,77.6446 263.5,71.5C 263.5,70.5 263.5,69.5 263.5,68.5 Z"/></g>
<g><path style="opacity:1" fill="#fcf8dc" d="M 263.5,68.5 C 255.833,68.5 248.167,68.5 240.5,68.5C 240.5,76.1667 240.5,83.8333 240.5,91.5C 232.833,91.5 225.167,91.5 217.5,91.5C 217.611,90.8826 217.944,90.3826 218.5,90C 225.492,89.5004 232.492,89.3337 239.5,89.5C 239.5,81.8333 239.5,74.1667 239.5,66.5C 241.937,66.2437 244.271,65.5771 246.5,64.5C 247.446,64.9867 248.446,65.3201 249.5,65.5C 249.828,63.921 251.328,63.2543 254,63.5C 255.167,63.6667 256.333,63.8333 257.5,64C 256.167,65 256.167,66 257.5,67C 259.708,67.1909 261.708,67.6909 263.5,68.5 Z"/></g>
<g><path style="opacity:1" fill="#d28942" d="M 263.5,68.5 C 263.5,69.5 263.5,70.5 263.5,71.5C 263.5,77.8333 263.5,84.1667 263.5,90.5C 262.816,84.0991 262.15,77.5991 261.5,71C 255.175,70.5005 248.842,70.3338 242.5,70.5C 242.76,77.557 242.427,84.557 241.5,91.5C 241.167,91.5 240.833,91.5 240.5,91.5C 240.5,83.8333 240.5,76.1667 240.5,68.5C 248.167,68.5 255.833,68.5 263.5,68.5 Z"/></g>
<g><path style="opacity:1" fill="#e87a10" d="M 263.5,90.5 C 263.5,90.8333 263.5,91.1667 263.5,91.5C 256.167,91.5 248.833,91.5 241.5,91.5C 242.427,84.557 242.76,77.557 242.5,70.5C 248.842,70.3338 255.175,70.5005 261.5,71C 262.15,77.5991 262.816,84.0991 263.5,90.5 Z"/></g>
<g><path style="opacity:1" fill="#fef3c8" d="M 217.5,91.5 C 217.5,99.1667 217.5,106.833 217.5,114.5C 209.833,114.5 202.167,114.5 194.5,114.5C 201.648,113.508 208.981,113.175 216.5,113.5C 216.5,106.5 216.5,99.5 216.5,92.5C 216.5,91.8333 216.833,91.5 217.5,91.5 Z"/></g>
<g><path style="opacity:1" fill="#fff2c2" d="M 379.5,91.5 C 379.833,91.5 380.167,91.5 380.5,91.5C 380.5,98.8333 380.5,106.167 380.5,113.5C 387.687,113.175 394.687,113.509 401.5,114.5C 394.167,114.5 386.833,114.5 379.5,114.5C 379.5,106.833 379.5,99.1667 379.5,91.5 Z"/></g>
<g><path style="opacity:1" fill="#7e4f1d" d="M 332.5,114.5 C 347.833,114.5 363.167,114.5 378.5,114.5C 378.833,114.5 379.167,114.5 379.5,114.5C 379.5,121.5 379.5,128.5 379.5,135.5C 379.672,136.492 379.338,137.158 378.5,137.5C 378.824,130.646 378.491,123.979 377.5,117.5C 377.158,116.662 376.492,116.328 375.5,116.5C 362.167,115.167 348.833,115.167 335.5,116.5C 334.833,116.5 334.5,116.833 334.5,117.5C 333.509,123.979 333.176,130.646 333.5,137.5C 332.509,130.687 332.175,123.687 332.5,116.5C 332.5,115.833 332.5,115.167 332.5,114.5 Z"/></g>
<g><path style="opacity:1" fill="#53412e" d="M 335.5,116.5 C 348.833,115.167 362.167,115.167 375.5,116.5C 374.5,116.5 373.5,116.5 372.5,116.5C 372.36,118.124 373.027,119.29 374.5,120C 372.522,122.015 370.688,121.848 369,119.5C 368.383,118.551 368.549,117.718 369.5,117C 358.172,116.5 346.838,116.333 335.5,116.5 Z"/></g>
<g><path style="opacity:1" fill="#e87a0e" d="M 332.5,114.5 C 332.5,115.167 332.5,115.833 332.5,116.5C 331.508,123.982 331.175,131.648 331.5,139.5C 339.5,139.5 347.5,139.5 355.5,139.5C 355.5,146.5 355.5,153.5 355.5,160.5C 340.5,160.5 325.5,160.5 310.5,160.5C 303.167,160.5 295.833,160.5 288.5,160.5C 289.969,152.141 289.802,143.808 288,135.5C 287.617,136.056 287.117,136.389 286.5,136.5C 285.992,129.466 285.992,122.133 286.5,114.5C 301.887,114.287 317.22,114.287 332.5,114.5 Z"/></g>
<g><path style="opacity:1" fill="#d8ac64" d="M 194.5,114.5 C 202.167,114.5 209.833,114.5 217.5,114.5C 211.013,115.328 204.346,115.828 197.5,116C 196.944,116.383 196.611,116.883 196.5,117.5C 195.509,123.979 195.176,130.646 195.5,137.5C 195.167,137.5 194.833,137.5 194.5,137.5C 194.5,137.167 194.5,136.833 194.5,136.5C 194.5,129.167 194.5,121.833 194.5,114.5 Z"/></g>
<g><path style="opacity:1" fill="#444343" d="M 335.5,116.5 C 346.838,116.333 358.172,116.5 369.5,117C 368.549,117.718 368.383,118.551 369,119.5C 370.688,121.848 372.522,122.015 374.5,120C 373.027,119.29 372.36,118.124 372.5,116.5C 373.5,116.5 374.5,116.5 375.5,116.5C 376.492,116.328 377.158,116.662 377.5,117.5C 378.097,123.96 377.43,130.126 375.5,136C 362.171,136.5 348.837,136.667 335.5,136.5C 334.68,130.203 334.347,123.869 334.5,117.5C 334.5,116.833 334.833,116.5 335.5,116.5 Z"/></g>
<g><path style="opacity:1" fill="#f88c07" d="M 381.5,116.5 C 387.833,116.5 394.167,116.5 400.5,116.5C 400.817,131.215 400.483,145.882 399.5,160.5C 400.325,161.386 401.325,161.719 402.5,161.5C 409.833,161.5 417.167,161.5 424.5,161.5C 424.175,169.019 424.508,176.352 425.5,183.5C 425.5,183.833 425.5,184.167 425.5,184.5C 427.123,185.779 428.79,187.113 430.5,188.5C 434.376,188.122 438.043,187.122 441.5,185.5C 442.842,187.005 444.508,187.672 446.5,187.5C 446.957,192.898 446.29,198.064 444.5,203C 444.583,205.333 445.583,207.166 447.5,208.5C 454.169,209.666 460.836,209.666 467.5,208.5C 467.334,218.839 467.5,229.172 468,239.5C 468.333,234.167 468.667,228.833 469,223.5C 469.667,230.167 469.667,236.833 469,243.5C 468.667,243.167 468.333,242.833 468,242.5C 467.174,245.793 466.674,249.126 466.5,252.5C 452.151,252.167 437.818,252.501 423.5,253.5C 424.465,260.776 424.799,268.109 424.5,275.5C 440.167,275.5 455.833,275.5 471.5,275.5C 471.5,268.5 471.5,261.5 471.5,254.5C 478.5,254.5 485.5,254.5 492.5,254.5C 492.797,299.848 492.464,345.181 491.5,390.5C 484.833,390.5 478.167,390.5 471.5,390.5C 470.448,390.351 469.448,390.517 468.5,391C 469.602,393.401 469.769,395.901 469,398.5C 468.667,396.5 468.333,394.5 468,392.5C 467.586,392.043 467.086,391.709 466.5,391.5C 465.752,394.497 465.085,397.497 464.5,400.5C 465.325,401.386 466.325,401.719 467.5,401.5C 467.5,405.167 467.5,408.833 467.5,412.5C 460.646,412.176 453.979,412.509 447.5,413.5C 447.5,421.167 447.5,428.833 447.5,436.5C 440.137,436.831 432.803,436.497 425.5,435.5C 425.332,428.596 425.332,421.596 425.5,414.5C 417.799,414.691 410.132,414.358 402.5,413.5C 402.5,383.167 402.5,352.833 402.5,322.5C 410.42,322.815 418.253,322.482 426,321.5C 425.57,313.918 425.403,306.251 425.5,298.5C 417.5,298.5 409.5,298.5 401.5,298.5C 401.83,305.532 401.497,312.532 400.5,319.5C 397.7,320.732 394.7,321.399 391.5,321.5C 388.181,321.359 385.014,320.693 382,319.5C 380.989,320.056 380.156,320.722 379.5,321.5C 371.833,321.5 364.167,321.5 356.5,321.5C 356.203,314.442 356.536,307.442 357.5,300.5C 364.803,299.503 372.137,299.169 379.5,299.5C 379.5,291.5 379.5,283.5 379.5,275.5C 371.833,275.5 364.167,275.5 356.5,275.5C 356.5,268.167 356.5,260.833 356.5,253.5C 364.5,253.5 372.5,253.5 380.5,253.5C 379.635,245.534 379.302,237.534 379.5,229.5C 363.833,229.5 348.167,229.5 332.5,229.5C 332.5,214.167 332.5,198.833 332.5,183.5C 325.245,183.813 318.079,183.48 311,182.5C 310.5,175.174 310.334,167.841 310.5,160.5C 325.5,160.5 340.5,160.5 355.5,160.5C 355.5,153.5 355.5,146.5 355.5,139.5C 362.833,138.833 370.167,138.167 377.5,137.5C 377.833,137.5 378.167,137.5 378.5,137.5C 379.338,137.158 379.672,136.492 379.5,135.5C 380.167,129.167 380.833,122.833 381.5,116.5 Z"/></g>
<g><path style="opacity:1" fill="#e39128" d="M 381.5,116.5 C 387.979,115.509 394.646,115.176 401.5,115.5C 401.171,130.676 401.504,145.676 402.5,160.5C 402.5,160.833 402.5,161.167 402.5,161.5C 401.325,161.719 400.325,161.386 399.5,160.5C 400.483,145.882 400.817,131.215 400.5,116.5C 394.167,116.5 387.833,116.5 381.5,116.5 Z"/></g>
<g><path style="opacity:1" fill="#dcac61" d="M 379.5,114.5 C 386.833,114.5 394.167,114.5 401.5,114.5C 401.833,114.5 402.167,114.5 402.5,114.5C 402.5,129.833 402.5,145.167 402.5,160.5C 401.504,145.676 401.171,130.676 401.5,115.5C 394.646,115.176 387.979,115.509 381.5,116.5C 380.833,122.833 380.167,129.167 379.5,135.5C 379.5,128.5 379.5,121.5 379.5,114.5 Z"/></g>
<g><path style="opacity:1" fill="#fef3c9" d="M 402.5,114.5 C 403.496,129.324 403.829,144.324 403.5,159.5C 411.019,159.175 418.352,159.508 425.5,160.5C 417.833,160.5 410.167,160.5 402.5,160.5C 402.5,145.167 402.5,129.833 402.5,114.5 Z"/></g>
<g><path style="opacity:1" fill="#da8f39" d="M 196.5,117.5 C 196.171,123.537 196.504,129.537 197.5,135.5C 204.297,136.132 210.963,136.799 217.5,137.5C 210.167,137.5 202.833,137.5 195.5,137.5C 195.176,130.646 195.509,123.979 196.5,117.5 Z"/></g>
<g><path style="opacity:1" fill="#603e1c" d="M 334.5,117.5 C 334.347,123.869 334.68,130.203 335.5,136.5C 348.837,136.667 362.171,136.5 375.5,136C 377.43,130.126 378.097,123.96 377.5,117.5C 378.491,123.979 378.824,130.646 378.5,137.5C 378.167,137.5 377.833,137.5 377.5,137.5C 362.833,137.5 348.167,137.5 333.5,137.5C 333.176,130.646 333.509,123.979 334.5,117.5 Z"/></g>
<g><path style="opacity:1" fill="#532408" d="M 240.5,137.5 C 256.167,137.5 271.833,137.5 287.5,137.5C 287.5,145.167 287.5,152.833 287.5,160.5C 287.167,160.5 286.833,160.5 286.5,160.5C 286.5,153.167 286.5,145.833 286.5,138.5C 271.5,138.5 256.5,138.5 241.5,138.5C 241.5,145.833 241.5,153.167 241.5,160.5C 240.833,160.5 240.5,160.167 240.5,159.5C 240.5,152.167 240.5,144.833 240.5,137.5 Z"/></g>
<g><path style="opacity:1" fill="#d07e2c" d="M 332.5,116.5 C 332.175,123.687 332.509,130.687 333.5,137.5C 348.167,137.5 362.833,137.5 377.5,137.5C 370.167,138.167 362.833,138.833 355.5,139.5C 347.5,139.5 339.5,139.5 331.5,139.5C 331.175,131.648 331.508,123.982 332.5,116.5 Z"/></g>
<g><path style="opacity:1" fill="#060101" d="M 217.5,138.5 C 217.5,145.833 217.5,153.167 217.5,160.5C 210.167,160.5 202.833,160.5 195.5,160.5C 195.5,153.167 195.5,145.833 195.5,138.5C 202.833,138.5 210.167,138.5 217.5,138.5 Z"/></g>
<g><path style="opacity:1" fill="#030102" d="M 286.5,160.5 C 271.5,160.5 256.5,160.5 241.5,160.5C 241.5,153.167 241.5,145.833 241.5,138.5C 256.5,138.5 271.5,138.5 286.5,138.5C 286.5,145.833 286.5,153.167 286.5,160.5 Z"/></g>
<g><path style="opacity:1" fill="#48352d" d="M 194.5,137.5 C 194.833,137.5 195.167,137.5 195.5,137.5C 202.833,137.5 210.167,137.5 217.5,137.5C 217.5,137.833 217.5,138.167 217.5,138.5C 210.167,138.5 202.833,138.5 195.5,138.5C 195.5,145.833 195.5,153.167 195.5,160.5C 195.167,160.5 194.833,160.5 194.5,160.5C 194.5,152.833 194.5,145.167 194.5,137.5 Z"/></g>
<g><path style="opacity:1" fill="#dc8526" d="M 288.5,160.5 C 288.167,160.5 287.833,160.5 287.5,160.5C 287.5,152.833 287.5,145.167 287.5,137.5C 271.833,137.5 256.167,137.5 240.5,137.5C 255.658,136.504 270.991,136.17 286.5,136.5C 287.117,136.389 287.617,136.056 288,135.5C 289.802,143.808 289.969,152.141 288.5,160.5 Z"/></g>
<g><path style="opacity:1" fill="#040102" d="M 171.5,161.5 C 171.5,168.833 171.5,176.167 171.5,183.5C 164.167,183.5 156.833,183.5 149.5,183.5C 149.5,176.167 149.5,168.833 149.5,161.5C 156.833,161.5 164.167,161.5 171.5,161.5 Z"/></g>
<g><path style="opacity:1" fill="#fab60f" d="M 217.5,160.5 C 224.833,160.5 232.167,160.5 239.5,160.5C 239.5,167.833 239.5,175.167 239.5,182.5C 232.167,182.5 224.833,182.5 217.5,182.5C 217.5,175.5 217.5,168.5 217.5,161.5C 217.5,161.167 217.5,160.833 217.5,160.5 Z"/></g>
<g><path style="opacity:1" fill="#e87a12" d="M 194.5,161.5 C 194.23,168.007 194.23,175.007 194.5,182.5C 187.124,182.726 179.791,182.392 172.5,181.5C 172.5,174.833 172.5,168.167 172.5,161.5C 179.833,161.5 187.167,161.5 194.5,161.5 Z"/></g>
<g><path style="opacity:1" fill="#deaa5f" d="M 402.5,161.5 C 402.5,161.167 402.5,160.833 402.5,160.5C 410.167,160.5 417.833,160.5 425.5,160.5C 425.5,160.833 425.5,161.167 425.5,161.5C 425.5,168.833 425.5,176.167 425.5,183.5C 424.508,176.352 424.175,169.019 424.5,161.5C 417.167,161.5 409.833,161.5 402.5,161.5 Z"/></g>
<g><path style="opacity:1" fill="#f78d0a" d="M 194.5,161.5 C 202.167,161.5 209.833,161.5 217.5,161.5C 217.5,168.5 217.5,175.5 217.5,182.5C 209.833,182.5 202.167,182.5 194.5,182.5C 194.23,175.007 194.23,168.007 194.5,161.5 Z"/></g>
<g><path style="opacity:1" fill="#c17f37" d="M 171.5,160.5 C 179.167,160.5 186.833,160.5 194.5,160.5C 194.833,160.5 195.167,160.5 195.5,160.5C 202.833,160.5 210.167,160.5 217.5,160.5C 217.5,160.833 217.5,161.167 217.5,161.5C 209.833,161.5 202.167,161.5 194.5,161.5C 187.167,161.5 179.833,161.5 172.5,161.5C 172.5,168.167 172.5,174.833 172.5,181.5C 179.791,182.392 187.124,182.726 194.5,182.5C 202.167,182.5 209.833,182.5 217.5,182.5C 217.5,182.833 217.5,183.167 217.5,183.5C 202.167,183.5 186.833,183.5 171.5,183.5C 171.5,176.167 171.5,168.833 171.5,161.5C 171.5,161.167 171.5,160.833 171.5,160.5 Z"/></g>
<g><path style="opacity:1" fill="#eac154" d="M 240.5,159.5 C 240.5,160.167 240.833,160.5 241.5,160.5C 241.825,168.352 241.492,176.018 240.5,183.5C 232.833,183.5 225.167,183.5 217.5,183.5C 217.5,183.167 217.5,182.833 217.5,182.5C 224.833,182.5 232.167,182.5 239.5,182.5C 239.5,175.167 239.5,167.833 239.5,160.5C 239.5,159.833 239.833,159.5 240.5,159.5 Z"/></g>
<g><path style="opacity:1" fill="#ecbf52" d="M 286.5,160.5 C 286.833,160.5 287.167,160.5 287.5,160.5C 287.833,160.5 288.167,160.5 288.5,160.5C 288.5,167.833 288.5,175.167 288.5,182.5C 295.354,182.176 302.021,182.509 308.5,183.5C 301.5,183.5 294.5,183.5 287.5,183.5C 286.508,176.018 286.175,168.352 286.5,160.5 Z"/></g>
<g><path style="opacity:1" fill="#fdf6c7" d="M 425.5,161.5 C 426.491,168.313 426.825,175.313 426.5,182.5C 433.755,182.813 440.921,182.48 448,181.5C 449.466,189.328 449.966,197.328 449.5,205.5C 455.69,205.177 461.69,205.51 467.5,206.5C 461.167,206.5 454.833,206.5 448.5,206.5C 448.5,198.833 448.5,191.167 448.5,183.5C 440.833,183.5 433.167,183.5 425.5,183.5C 425.5,176.167 425.5,168.833 425.5,161.5 Z"/></g>
<g><path style="opacity:1" fill="#61462c" d="M 171.5,183.5 C 186.833,183.5 202.167,183.5 217.5,183.5C 225.167,183.5 232.833,183.5 240.5,183.5C 240.5,184.167 240.5,184.833 240.5,185.5C 217.142,186.156 194.142,185.49 171.5,183.5 Z"/></g>
<g><path style="opacity:1" fill="#ea7b0e" d="M 378.5,183.5 C 386.5,183.5 394.5,183.5 402.5,183.5C 402.5,191.5 402.5,199.5 402.5,207.5C 394.5,207.5 386.5,207.5 378.5,207.5C 378.5,199.5 378.5,191.5 378.5,183.5 Z"/></g>
<g><path style="opacity:1" fill="#fab60f" d="M 288.5,160.5 C 295.833,160.5 303.167,160.5 310.5,160.5C 310.334,167.841 310.5,175.174 311,182.5C 318.079,183.48 325.245,183.813 332.5,183.5C 332.5,198.833 332.5,214.167 332.5,229.5C 325.167,229.5 317.833,229.5 310.5,229.5C 311.151,213.797 310.484,198.464 308.5,183.5C 302.021,182.509 295.354,182.176 288.5,182.5C 288.5,175.167 288.5,167.833 288.5,160.5 Z"/></g>
<g><path style="opacity:1" fill="#e0aa5c" d="M 425.5,184.5 C 425.5,184.167 425.5,183.833 425.5,183.5C 433.167,183.5 440.833,183.5 448.5,183.5C 448.5,191.167 448.5,198.833 448.5,206.5C 447.508,199.352 447.175,192.019 447.5,184.5C 440.167,184.5 432.833,184.5 425.5,184.5 Z"/></g>
<g><path style="opacity:1" fill="#434345" d="M 171.5,160.5 C 171.5,160.833 171.5,161.167 171.5,161.5C 164.167,161.5 156.833,161.5 149.5,161.5C 149.5,168.833 149.5,176.167 149.5,183.5C 156.833,183.5 164.167,183.5 171.5,183.5C 194.142,185.49 217.142,186.156 240.5,185.5C 240.5,192.5 240.5,199.5 240.5,206.5C 209.833,206.5 179.167,206.5 148.5,206.5C 148.5,191.167 148.5,175.833 148.5,160.5C 156.167,160.5 163.833,160.5 171.5,160.5 Z"/></g>
<g><path style="opacity:1" fill="#ee8f17" d="M 425.5,184.5 C 432.833,184.5 440.167,184.5 447.5,184.5C 447.175,192.019 447.508,199.352 448.5,206.5C 455.648,207.492 462.981,207.825 470.5,207.5C 470.5,222.5 470.5,237.5 470.5,252.5C 468.965,253.354 467.632,253.354 466.5,252.5C 466.674,249.126 467.174,245.793 468,242.5C 468.333,242.833 468.667,243.167 469,243.5C 469.667,236.833 469.667,230.167 469,223.5C 468.667,228.833 468.333,234.167 468,239.5C 467.5,229.172 467.334,218.839 467.5,208.5C 460.836,209.666 454.169,209.666 447.5,208.5C 445.583,207.166 444.583,205.333 444.5,203C 446.29,198.064 446.957,192.898 446.5,187.5C 444.508,187.672 442.842,187.005 441.5,185.5C 438.043,187.122 434.376,188.122 430.5,188.5C 428.79,187.113 427.123,185.779 425.5,184.5 Z"/></g>
<g><path style="opacity:1" fill="#e7a650" d="M 448.5,206.5 C 454.833,206.5 461.167,206.5 467.5,206.5C 469.099,206.232 470.432,206.566 471.5,207.5C 471.5,222.5 471.5,237.5 471.5,252.5C 471.167,252.5 470.833,252.5 470.5,252.5C 470.5,237.5 470.5,222.5 470.5,207.5C 462.981,207.825 455.648,207.492 448.5,206.5 Z"/></g>
<g><path style="opacity:1" fill="#fcf4c4" d="M 471.5,207.5 C 472.496,221.99 472.829,236.657 472.5,251.5C 479.354,251.176 486.021,251.509 492.5,252.5C 485.5,252.5 478.5,252.5 471.5,252.5C 471.5,237.5 471.5,222.5 471.5,207.5 Z"/></g>
<g><path style="opacity:1" fill="#dbdbdb" d="M 141.5,148.5 C 137.254,150.303 135.088,153.636 135,158.5C 134.333,175.5 134.333,192.5 135,209.5C 135.151,214.327 137.317,217.827 141.5,220C 154.058,222.192 166.724,223.025 179.5,222.5C 179.167,240.845 179.5,259.179 180.5,277.5C 181.522,280.441 182.355,283.441 183,286.5C 184.255,287.211 185.421,288.044 186.5,289C 191.808,289.83 197.141,290.33 202.5,290.5C 202.5,303.5 202.5,316.5 202.5,329.5C 199.615,329.194 196.948,329.527 194.5,330.5C 192.058,330.881 191.391,330.214 192.5,328.5C 195.032,327.881 197.365,326.881 199.5,325.5C 200.499,314.854 200.832,304.187 200.5,293.5C 191.507,294.458 184.34,291.458 179,284.5C 177.729,264.876 177.062,245.21 177,225.5C 165.91,224.678 154.743,224.178 143.5,224C 139.623,222.568 136.289,220.402 133.5,217.5C 132.978,214.432 132.145,211.432 131,208.5C 130.333,192.167 130.333,175.833 131,159.5C 130.985,153.186 133.819,148.686 139.5,146C 142.219,145.406 142.886,146.24 141.5,148.5 Z"/></g>
<g><path style="opacity:1" fill="#fff2b3" d="M 287.5,183.5 C 294.5,183.5 301.5,183.5 308.5,183.5C 310.484,198.464 311.151,213.797 310.5,229.5C 310.167,229.5 309.833,229.5 309.5,229.5C 302.167,229.5 294.833,229.5 287.5,229.5C 294.313,228.509 301.313,228.175 308.5,228.5C 308.5,213.833 308.5,199.167 308.5,184.5C 301.313,184.825 294.313,184.491 287.5,183.5 Z"/></g>
<g><path style="opacity:1" fill="#e97a0e" d="M 332.5,229.5 C 348.167,229.5 363.833,229.5 379.5,229.5C 379.302,237.534 379.635,245.534 380.5,253.5C 372.5,253.5 364.5,253.5 356.5,253.5C 356.5,260.833 356.5,268.167 356.5,275.5C 348.648,275.825 340.982,275.492 333.5,274.5C 333.188,267.578 333.521,260.744 334.5,254C 326.946,252.568 319.279,252.068 311.5,252.5C 310.508,245.352 310.175,238.019 310.5,230.5C 318.019,230.825 325.352,230.492 332.5,229.5 Z"/></g>
<g><path style="opacity:1" fill="#fab60d" d="M 309.5,231.5 C 309.5,245.833 309.5,260.167 309.5,274.5C 302.578,274.812 295.744,274.479 289,273.5C 288.5,259.504 288.333,245.504 288.5,231.5C 295.5,231.5 302.5,231.5 309.5,231.5 Z"/></g>
<g><path style="opacity:1" fill="#fcf2bc" d="M 287.5,229.5 C 287.5,244.833 287.5,260.167 287.5,275.5C 294.648,276.492 301.981,276.825 309.5,276.5C 309.5,283.833 309.5,291.167 309.5,298.5C 308.509,291.687 308.175,284.687 308.5,277.5C 300.913,277.814 293.413,277.481 286,276.5C 285.833,268.667 285.667,260.833 285.5,253C 285.502,244.804 286.169,236.97 287.5,229.5 Z"/></g>
<g><path style="opacity:1" fill="#eab93c" d="M 287.5,229.5 C 294.833,229.5 302.167,229.5 309.5,229.5C 309.5,230.167 309.5,230.833 309.5,231.5C 302.5,231.5 295.5,231.5 288.5,231.5C 288.333,245.504 288.5,259.504 289,273.5C 295.744,274.479 302.578,274.812 309.5,274.5C 309.5,274.833 309.5,275.167 309.5,275.5C 302.167,275.5 294.833,275.5 287.5,275.5C 287.5,260.167 287.5,244.833 287.5,229.5 Z"/></g>
<g><path style="opacity:1" fill="#efefef" d="M 418.5,105.5 C 420.157,108.144 421.49,111.144 422.5,114.5C 422.452,123.907 422.452,133.24 422.5,142.5C 438.592,141.594 445.925,149.261 444.5,165.5C 459.564,163.752 467.231,170.252 467.5,185C 468.357,185.689 469.023,186.522 469.5,187.5C 475.276,187.941 480.61,189.607 485.5,192.5C 487.286,196.307 488.452,200.307 489,204.5C 489.5,214.494 489.666,224.494 489.5,234.5C 495.369,234.048 501.035,234.881 506.5,237C 507.701,237.903 508.535,239.069 509,240.5C 509.333,240.167 509.667,239.833 510,239.5C 511.399,242.363 512.399,245.363 513,248.5C 513.667,297.5 513.667,346.5 513,395.5C 511.801,398.956 510.301,402.29 508.5,405.5C 502.575,407.71 496.575,409.71 490.5,411.5C 489.682,414.107 489.182,416.774 489,419.5C 488.623,420.942 487.79,421.942 486.5,422.5C 487.807,417.934 488.474,413.267 488.5,408.5C 492.755,408.616 496.755,407.783 500.5,406C 498.527,405.505 496.527,405.338 494.5,405.5C 497.311,404.525 500.311,403.858 503.5,403.5C 501.372,404.281 501.205,405.281 503,406.5C 508.445,403.567 511.111,398.9 511,392.5C 511.667,344.5 511.667,296.5 511,248.5C 510.077,247.241 509.243,245.908 508.5,244.5C 507.702,244.957 507.369,245.624 507.5,246.5C 506.31,244.645 504.977,242.812 503.5,241C 500.258,240.594 497.258,239.761 494.5,238.5C 497.214,238.75 499.881,238.917 502.5,239C 498.366,236.245 493.699,235.078 488.5,235.5C 488.666,225.494 488.5,215.494 488,205.5C 487.333,202.833 486.667,200.167 486,197.5C 481.252,190.884 474.752,188.218 466.5,189.5C 466.752,182.394 464.752,176.06 460.5,170.5C 455.064,168.224 449.398,166.724 443.5,166C 442.741,161.529 441.908,157.029 441,152.5C 439.084,148.915 436.251,146.415 432.5,145C 428.384,144.675 424.384,143.841 420.5,142.5C 419.793,130.18 419.126,117.847 418.5,105.5 Z"/></g>
<g><path style="opacity:1" fill="#f88c08" d="M 311.5,252.5 C 319.279,252.068 326.946,252.568 334.5,254C 333.521,260.744 333.188,267.578 333.5,274.5C 325.833,274.5 318.167,274.5 310.5,274.5C 311.392,267.209 311.726,259.876 311.5,252.5 Z"/></g>
<g><path style="opacity:1" fill="#e97a0e" d="M 466.5,252.5 C 467.632,253.354 468.965,253.354 470.5,252.5C 470.833,252.5 471.167,252.5 471.5,252.5C 471.5,252.833 471.5,253.167 471.5,253.5C 471.5,253.833 471.5,254.167 471.5,254.5C 471.5,261.5 471.5,268.5 471.5,275.5C 455.833,275.5 440.167,275.5 424.5,275.5C 424.799,268.109 424.465,260.776 423.5,253.5C 437.818,252.501 452.151,252.167 466.5,252.5 Z"/></g>
<g><path style="opacity:1" fill="#ec9020" d="M 471.5,254.5 C 471.5,254.167 471.5,253.833 471.5,253.5C 478.833,253.5 486.167,253.5 493.5,253.5C 494.162,299.512 493.495,345.179 491.5,390.5C 492.464,345.181 492.797,299.848 492.5,254.5C 485.5,254.5 478.5,254.5 471.5,254.5 Z"/></g>
<g><path style="opacity:1" fill="#d19d4f" d="M 471.5,253.5 C 471.5,253.167 471.5,252.833 471.5,252.5C 478.5,252.5 485.5,252.5 492.5,252.5C 493.167,252.5 493.833,252.5 494.5,252.5C 494.5,298.5 494.5,344.5 494.5,390.5C 494.158,391.338 493.492,391.672 492.5,391.5C 485.5,391.5 478.5,391.5 471.5,391.5C 471.5,391.167 471.5,390.833 471.5,390.5C 478.167,390.5 484.833,390.5 491.5,390.5C 493.495,345.179 494.162,299.512 493.5,253.5C 486.167,253.5 478.833,253.5 471.5,253.5 Z"/></g>
<g><path style="opacity:1" fill="#fefbe1" d="M 494.5,252.5 C 495.5,252.5 496.5,252.5 497.5,252.5C 497.833,296.172 497.5,339.838 496.5,383.5C 495.832,385.969 495.165,388.302 494.5,390.5C 494.5,344.5 494.5,298.5 494.5,252.5 Z"/></g>
<g><path style="opacity:1" fill="#d8d8d7" d="M 503.5,403.5 C 504.649,401.851 505.982,400.351 507.5,399C 508.078,397.189 508.578,395.355 509,393.5C 509.667,345.833 509.667,298.167 509,250.5C 508.79,248.942 508.29,247.609 507.5,246.5C 507.369,245.624 507.702,244.957 508.5,244.5C 509.243,245.908 510.077,247.241 511,248.5C 511.667,296.5 511.667,344.5 511,392.5C 511.111,398.9 508.445,403.567 503,406.5C 501.205,405.281 501.372,404.281 503.5,403.5 Z"/></g>
<g><path style="opacity:1" fill="#f49f0b" d="M 309.5,229.5 C 309.833,229.5 310.167,229.5 310.5,229.5C 317.833,229.5 325.167,229.5 332.5,229.5C 325.352,230.492 318.019,230.825 310.5,230.5C 310.175,238.019 310.508,245.352 311.5,252.5C 311.726,259.876 311.392,267.209 310.5,274.5C 318.167,274.5 325.833,274.5 333.5,274.5C 340.982,275.492 348.648,275.825 356.5,275.5C 364.167,275.5 371.833,275.5 379.5,275.5C 379.5,283.5 379.5,291.5 379.5,299.5C 372.137,299.169 364.803,299.503 357.5,300.5C 356.536,307.442 356.203,314.442 356.5,321.5C 355.186,314.295 355.186,306.962 356.5,299.5C 363.803,298.503 371.137,298.169 378.5,298.5C 378.5,291.167 378.5,283.833 378.5,276.5C 355.833,276.5 333.167,276.5 310.5,276.5C 310.5,275.833 310.167,275.5 309.5,275.5C 309.5,275.167 309.5,274.833 309.5,274.5C 309.5,260.167 309.5,245.833 309.5,231.5C 309.5,230.833 309.5,230.167 309.5,229.5 Z"/></g>
<g><path style="opacity:1" fill="#fab60f" d="M 310.5,276.5 C 333.167,276.5 355.833,276.5 378.5,276.5C 378.5,283.833 378.5,291.167 378.5,298.5C 371.137,298.169 363.803,298.503 356.5,299.5C 355.186,306.962 355.186,314.295 356.5,321.5C 364.167,321.5 371.833,321.5 379.5,321.5C 379.666,329.174 379.5,336.841 379,344.5C 371.587,345.481 364.087,345.814 356.5,345.5C 355.691,347.292 355.191,349.292 355,351.5C 354.833,379.506 354.333,407.506 353.5,435.5C 347.227,436.46 340.893,436.793 334.5,436.5C 333.508,429.352 333.175,422.019 333.5,414.5C 333.5,375.833 333.5,337.167 333.5,298.5C 326.159,298.666 318.826,298.5 311.5,298C 310.52,290.921 310.187,283.755 310.5,276.5 Z"/></g>
<g><path style="opacity:1" fill="#f0f0f0" d="M 133.5,217.5 C 136.289,220.402 139.623,222.568 143.5,224C 154.743,224.178 165.91,224.678 177,225.5C 177.062,245.21 177.729,264.876 179,284.5C 184.34,291.458 191.507,294.458 200.5,293.5C 200.832,304.187 200.499,314.854 199.5,325.5C 197.365,326.881 195.032,327.881 192.5,328.5C 191.391,330.214 192.058,330.881 194.5,330.5C 191.275,331.65 187.942,332.816 184.5,334C 183.364,335.145 182.364,336.312 181.5,337.5C 181.631,336.761 181.464,336.094 181,335.5C 179.684,336.974 178.684,338.641 178,340.5C 177.667,351.167 177.333,361.833 177,372.5C 166.891,373.286 156.724,373.952 146.5,374.5C 146.918,373.778 147.584,373.278 148.5,373C 157.494,372.5 166.494,372.334 175.5,372.5C 175.334,362.828 175.5,353.161 176,343.5C 176.182,340.774 176.682,338.107 177.5,335.5C 180.081,332.05 183.248,329.383 187,327.5C 190.764,326.749 194.43,325.749 198,324.5C 198.832,314.816 198.665,305.149 197.5,295.5C 189.745,296.266 183.578,293.6 179,287.5C 177.688,285.045 176.522,282.545 175.5,280C 175.506,262.804 175.506,245.637 175.5,228.5C 174.562,227.447 173.395,226.78 172,226.5C 159.521,228.953 147.354,227.453 135.5,222C 133.963,220.89 133.297,219.39 133.5,217.5 Z"/></g>
<g><path style="opacity:1" fill="#fefad8" d="M 310.5,299.5 C 317.833,299.5 325.167,299.5 332.5,299.5C 332.5,337.833 332.5,376.167 332.5,414.5C 332.167,414.5 331.833,414.5 331.5,414.5C 331.5,414.167 331.5,413.833 331.5,413.5C 331.5,375.833 331.5,338.167 331.5,300.5C 324.313,300.825 317.313,300.491 310.5,299.5 Z"/></g>
<g><path style="opacity:1" fill="#fae191" d="M 287.5,275.5 C 294.833,275.5 302.167,275.5 309.5,275.5C 310.167,275.5 310.5,275.833 310.5,276.5C 310.187,283.755 310.52,290.921 311.5,298C 318.826,298.5 326.159,298.666 333.5,298.5C 333.5,337.167 333.5,375.833 333.5,414.5C 333.167,414.5 332.833,414.5 332.5,414.5C 332.5,376.167 332.5,337.833 332.5,299.5C 325.167,299.5 317.833,299.5 310.5,299.5C 309.833,299.5 309.5,299.167 309.5,298.5C 309.5,291.167 309.5,283.833 309.5,276.5C 301.981,276.825 294.648,276.492 287.5,275.5 Z"/></g>
<g><path style="opacity:1" fill="#e87a0f" d="M 447.5,436.5 C 440.352,437.492 433.019,437.825 425.5,437.5C 424.502,460.327 424.169,483.327 424.5,506.5C 409.833,506.5 395.167,506.5 380.5,506.5C 380.191,491.631 380.524,476.797 381.5,462C 381.022,460.697 380.355,459.531 379.5,458.5C 379.372,451.651 379.372,444.651 379.5,437.5C 371.648,437.825 363.982,437.492 356.5,436.5C 356.5,406.167 356.5,375.833 356.5,345.5C 364.087,345.814 371.587,345.481 379,344.5C 379.5,336.841 379.666,329.174 379.5,321.5C 380.156,320.722 380.989,320.056 382,319.5C 385.014,320.693 388.181,321.359 391.5,321.5C 394.7,321.399 397.7,320.732 400.5,319.5C 401.497,312.532 401.83,305.532 401.5,298.5C 409.5,298.5 417.5,298.5 425.5,298.5C 425.403,306.251 425.57,313.918 426,321.5C 418.253,322.482 410.42,322.815 402.5,322.5C 402.5,352.833 402.5,383.167 402.5,413.5C 410.132,414.358 417.799,414.691 425.5,414.5C 425.332,421.596 425.332,428.596 425.5,435.5C 432.803,436.497 440.137,436.831 447.5,436.5 Z"/></g>
<g><path style="opacity:1" fill="#e8ce6b" d="M 195.5,345.5 C 195.5,360.833 195.5,376.167 195.5,391.5C 195.167,391.5 194.833,391.5 194.5,391.5C 194.167,391.5 193.833,391.5 193.5,391.5C 193.5,391.167 193.5,390.833 193.5,390.5C 194.167,375.5 194.833,360.5 195.5,345.5 Z"/></g>
<g><path style="opacity:1" fill="#fbb60e" d="M 217.5,390.5 C 217.5,390.833 217.5,391.167 217.5,391.5C 217.817,406.911 217.483,422.245 216.5,437.5C 216.5,444.5 216.5,451.5 216.5,458.5C 209.91,458.811 203.41,458.478 197,457.5C 196.377,450.477 196.543,443.477 197.5,436.5C 196.5,436.5 195.5,436.5 194.5,436.5C 194.5,421.5 194.5,406.5 194.5,391.5C 194.833,391.5 195.167,391.5 195.5,391.5C 196.496,376.676 196.829,361.676 196.5,346.5C 203.09,346.189 209.59,346.522 216,347.5C 216.169,362.006 216.669,376.339 217.5,390.5 Z"/></g>
<g><path style="opacity:1" fill="#e3b73d" d="M 195.5,345.5 C 202.833,345.5 210.167,345.5 217.5,345.5C 217.5,360.5 217.5,375.5 217.5,390.5C 216.669,376.339 216.169,362.006 216,347.5C 209.59,346.522 203.09,346.189 196.5,346.5C 196.829,361.676 196.496,376.676 195.5,391.5C 195.5,376.167 195.5,360.833 195.5,345.5 Z"/></g>
<g><path style="opacity:1" fill="#feaa19" d="M 356.5,345.5 C 356.5,375.833 356.5,406.167 356.5,436.5C 349.254,437.464 341.92,437.797 334.5,437.5C 334.5,437.167 334.5,436.833 334.5,436.5C 340.893,436.793 347.227,436.46 353.5,435.5C 354.333,407.506 354.833,379.506 355,351.5C 355.191,349.292 355.691,347.292 356.5,345.5 Z"/></g>
<g><path style="opacity:1" fill="#fee3a5" d="M 217.5,345.5 C 218.496,360.324 218.829,375.324 218.5,390.5C 225.5,390.5 232.5,390.5 239.5,390.5C 239.5,390.833 239.5,391.167 239.5,391.5C 232.5,391.5 225.5,391.5 218.5,391.5C 218.167,391.5 217.833,391.5 217.5,391.5C 217.5,391.167 217.5,390.833 217.5,390.5C 217.5,375.5 217.5,360.5 217.5,345.5 Z"/></g>
<g><path style="opacity:1" fill="#cb8742" d="M 192.5,391.5 C 179.006,392.331 165.339,392.831 151.5,393C 149.876,399.737 148.876,406.57 148.5,413.5C 148.5,408.833 148.5,404.167 148.5,399.5C 148.5,396.833 148.5,394.167 148.5,391.5C 163.167,391.5 177.833,391.5 192.5,391.5 Z"/></g>
<g><path style="opacity:1" fill="#e77a10" d="M 192.5,391.5 C 192.833,391.5 193.167,391.5 193.5,391.5C 193.833,391.5 194.167,391.5 194.5,391.5C 194.5,406.5 194.5,421.5 194.5,436.5C 178.991,436.17 163.658,436.504 148.5,437.5C 148.5,437.833 148.5,438.167 148.5,438.5C 147.509,444.979 147.176,451.646 147.5,458.5C 140.578,458.812 133.744,458.479 127,457.5C 126.5,443.504 126.333,429.504 126.5,415.5C 134.019,415.825 141.352,415.492 148.5,414.5C 148.5,414.167 148.5,413.833 148.5,413.5C 148.876,406.57 149.876,399.737 151.5,393C 165.339,392.831 179.006,392.331 192.5,391.5 Z"/></g>
<g><path style="opacity:1" fill="#fdf4c4" d="M 471.5,391.5 C 478.5,391.5 485.5,391.5 492.5,391.5C 486.021,392.491 479.354,392.824 472.5,392.5C 472.825,399.687 472.491,406.687 471.5,413.5C 471.5,406.167 471.5,398.833 471.5,391.5 Z"/></g>
<g><path style="opacity:1" fill="#e49b44" d="M 218.5,391.5 C 225.5,391.5 232.5,391.5 239.5,391.5C 241.465,398.76 242.132,406.427 241.5,414.5C 242.13,422.243 241.463,429.576 239.5,436.5C 239.5,421.833 239.5,407.167 239.5,392.5C 232.313,392.825 225.313,392.491 218.5,391.5 Z"/></g>
<g><path style="opacity:1" fill="#b2a08f" d="M 331.5,414.5 C 330.523,425.419 330.19,436.419 330.5,447.5C 328.833,447.5 327.167,447.5 325.5,447.5C 325.874,450.972 324.874,453.972 322.5,456.5C 324.045,457.452 325.712,457.785 327.5,457.5C 326.828,454.092 327.828,451.425 330.5,449.5C 331.233,453.204 331.9,456.871 332.5,460.5C 332.167,460.5 331.833,460.5 331.5,460.5C 331.167,460.5 330.833,460.5 330.5,460.5C 301.005,459.502 271.338,459.169 241.5,459.5C 241.825,451.981 241.492,444.648 240.5,437.5C 240.167,437.5 239.833,437.5 239.5,437.5C 239.5,437.167 239.5,436.833 239.5,436.5C 241.463,429.576 242.13,422.243 241.5,414.5C 241.833,414.5 242.167,414.5 242.5,414.5C 249.833,414.5 257.167,414.5 264.5,414.5C 264.5,406.833 264.5,399.167 264.5,391.5C 271.833,391.5 279.167,391.5 286.5,391.5C 286.5,399.167 286.5,406.833 286.5,414.5C 301.5,414.5 316.5,414.5 331.5,414.5 Z"/></g>
<g><path style="opacity:1" fill="#f88d0b" d="M 217.5,391.5 C 217.833,391.5 218.167,391.5 218.5,391.5C 225.313,392.491 232.313,392.825 239.5,392.5C 239.5,407.167 239.5,421.833 239.5,436.5C 239.5,436.833 239.5,437.167 239.5,437.5C 232.5,437.5 225.5,437.5 218.5,437.5C 217.833,437.5 217.167,437.5 216.5,437.5C 217.483,422.245 217.817,406.911 217.5,391.5 Z"/></g>
<g><path style="opacity:1" fill="#e3d9cf" d="M 331.5,413.5 C 331.5,413.833 331.5,414.167 331.5,414.5C 316.5,414.5 301.5,414.5 286.5,414.5C 286.5,406.833 286.5,399.167 286.5,391.5C 279.167,391.5 271.833,391.5 264.5,391.5C 264.5,399.167 264.5,406.833 264.5,414.5C 257.167,414.5 249.833,414.5 242.5,414.5C 249.313,413.509 256.313,413.175 263.5,413.5C 263.5,405.833 263.5,398.167 263.5,390.5C 271.5,390.5 279.5,390.5 287.5,390.5C 287.5,398.167 287.5,405.833 287.5,413.5C 302.167,413.5 316.833,413.5 331.5,413.5 Z"/></g>
<g><path style="opacity:1" fill="#ee911d" d="M 471.5,390.5 C 471.5,390.833 471.5,391.167 471.5,391.5C 471.5,398.833 471.5,406.167 471.5,413.5C 463.5,413.5 455.5,413.5 447.5,413.5C 453.979,412.509 460.646,412.176 467.5,412.5C 467.5,408.833 467.5,405.167 467.5,401.5C 466.325,401.719 465.325,401.386 464.5,400.5C 465.085,397.497 465.752,394.497 466.5,391.5C 467.086,391.709 467.586,392.043 468,392.5C 468.333,394.5 468.667,396.5 469,398.5C 469.769,395.901 469.602,393.401 468.5,391C 469.448,390.517 470.448,390.351 471.5,390.5 Z"/></g>
<g><path style="opacity:1" fill="#fcf9ef" d="M 239.5,390.5 C 232.5,390.5 225.5,390.5 218.5,390.5C 218.829,375.324 218.496,360.324 217.5,345.5C 209.903,343.533 201.903,342.866 193.5,343.5C 193.5,359.167 193.5,374.833 193.5,390.5C 193.5,390.833 193.5,391.167 193.5,391.5C 193.167,391.5 192.833,391.5 192.5,391.5C 177.833,391.5 163.167,391.5 148.5,391.5C 148.5,394.167 148.5,396.833 148.5,399.5C 147.515,403.634 147.182,407.968 147.5,412.5C 139.833,412.5 132.167,412.5 124.5,412.5C 124.5,415.833 124.5,419.167 124.5,422.5C 123.778,422.082 123.278,421.416 123,420.5C 122.282,421.451 121.449,421.617 120.5,421C 121.406,419.301 121.739,417.467 121.5,415.5C 122.705,414.328 122.705,412.995 121.5,411.5C 117.566,409.882 117.066,407.882 120,405.5C 121,407.167 122,408.833 123,410.5C 124.085,409.707 125.252,409.04 126.5,408.5C 132.12,409.262 137.786,409.262 143.5,408.5C 143.5,406.833 143.5,405.167 143.5,403.5C 122.218,402.174 122.218,401.508 143.5,401.5C 143.18,398.102 143.513,394.768 144.5,391.5C 146.375,392.836 147.708,392.336 148.5,390C 163.163,389.5 177.83,389.333 192.5,389.5C 192.817,374.118 192.484,358.785 191.5,343.5C 192.992,341.834 194.825,340.834 197,340.5C 199.731,341.617 202.565,342.283 205.5,342.5C 205.439,339.95 204.106,338.45 201.5,338C 206.167,337.333 210.833,337.333 215.5,338C 212.986,339.252 210.32,339.752 207.5,339.5C 207.5,340.5 207.5,341.5 207.5,342.5C 212.833,341.167 218.167,341.167 223.5,342.5C 222.29,358.191 220.957,373.858 219.5,389.5C 226.354,389.176 233.021,389.509 239.5,390.5 Z"/></g>
<g><path style="opacity:1" fill="#fef6bb" d="M 217.5,345.5 C 210.167,345.5 202.833,345.5 195.5,345.5C 194.833,360.5 194.167,375.5 193.5,390.5C 193.5,374.833 193.5,359.167 193.5,343.5C 201.903,342.866 209.903,343.533 217.5,345.5 Z"/></g>
<g><path style="opacity:1" fill="#dcdcdc" d="M 181.5,337.5 C 180.815,339.414 180.315,341.414 180,343.5C 179.5,354.161 179.333,364.828 179.5,375.5C 165.956,374.733 152.622,375.9 139.5,379C 138.12,380.925 136.62,382.759 135,384.5C 134.501,389.155 134.334,393.821 134.5,398.5C 127.898,398.234 121.564,399.401 115.5,402C 114.723,404.628 113.723,407.128 112.5,409.5C 111.807,413.565 111.14,417.732 110.5,422C 105.084,422.159 99.7504,422.826 94.5,424C 92.2911,425.873 90.4578,428.04 89,430.5C 87.2605,441.456 87.0938,452.456 88.5,463.5C 90.2106,470.873 94.8773,474.54 102.5,474.5C 110,474.833 117.5,475.167 125,475.5C 135.218,475.094 145.384,474.594 155.5,474C 156.473,479.407 156.807,484.907 156.5,490.5C 154.712,490.785 153.045,490.452 151.5,489.5C 152.242,488.713 153.075,488.047 154,487.5C 154.498,484.183 154.665,480.85 154.5,477.5C 135.164,477.667 115.83,477.5 96.5,477C 92.4122,475.248 89.2455,472.415 87,468.5C 85.5216,457.873 85.1883,447.206 86,436.5C 86.758,432.315 88.0913,428.315 90,424.5C 92.6171,423.781 94.7838,422.447 96.5,420.5C 99.9968,419.598 103.663,418.931 107.5,418.5C 107.763,410.142 111.096,403.308 117.5,398C 121.803,396.95 126.137,396.116 130.5,395.5C 131.46,390.548 132.627,385.548 134,380.5C 137.009,376.107 141.175,374.107 146.5,374.5C 156.724,373.952 166.891,373.286 177,372.5C 177.333,361.833 177.667,351.167 178,340.5C 178.684,338.641 179.684,336.974 181,335.5C 181.464,336.094 181.631,336.761 181.5,337.5 Z"/></g>
<g><path style="opacity:1" fill="#feebc4" d="M 148.5,399.5 C 148.5,404.167 148.5,408.833 148.5,413.5C 148.5,413.833 148.5,414.167 148.5,414.5C 140.833,414.5 133.167,414.5 125.5,414.5C 125.5,422.167 125.5,429.833 125.5,437.5C 125.167,437.5 124.833,437.5 124.5,437.5C 124.5,432.5 124.5,427.5 124.5,422.5C 124.5,419.167 124.5,415.833 124.5,412.5C 132.167,412.5 139.833,412.5 147.5,412.5C 147.182,407.968 147.515,403.634 148.5,399.5 Z"/></g>
<g><path style="opacity:1" fill="#fcfdfb" d="M 380.5,91.5 C 381.491,98.3134 381.825,105.313 381.5,112.5C 390.521,112.599 399.521,112.266 408.5,111.5C 410.828,121.861 412.161,121.861 412.5,111.5C 413.5,111.5 414.5,111.5 415.5,111.5C 417.408,122.984 418.074,134.651 417.5,146.5C 423.727,146.389 429.727,147.389 435.5,149.5C 438.791,155.314 440.291,161.647 440,168.5C 444.742,169.607 449.576,170.441 454.5,171C 456.587,171.792 458.421,172.959 460,174.5C 462.18,179.927 463.013,185.593 462.5,191.5C 467.617,191.581 472.617,192.414 477.5,194C 482.85,195.44 485.684,198.94 486,204.5C 486.5,215.828 486.667,227.162 486.5,238.5C 489.167,238.5 491.833,238.5 494.5,238.5C 497.258,239.761 500.258,240.594 503.5,241C 504.977,242.812 506.31,244.645 507.5,246.5C 508.29,247.609 508.79,248.942 509,250.5C 509.667,298.167 509.667,345.833 509,393.5C 508.578,395.355 508.078,397.189 507.5,399C 505.982,400.351 504.649,401.851 503.5,403.5C 500.311,403.858 497.311,404.525 494.5,405.5C 492.052,406.473 489.385,406.806 486.5,406.5C 486.678,412.442 485.512,418.109 483,423.5C 481.681,425.487 479.848,426.654 477.5,427C 472.936,428.475 468.27,429.308 463.5,429.5C 463.715,436.543 462.049,443.043 458.5,449C 452.615,450.626 446.615,451.46 440.5,451.5C 440.667,478.169 440.5,504.835 440,531.5C 439.085,536.657 436.251,540.157 431.5,542C 414.273,544.488 396.94,545.155 379.5,544C 375.595,543.392 371.928,542.225 368.5,540.5C 366.362,536.084 365.028,531.417 364.5,526.5C 363.501,509.513 363.167,492.513 363.5,475.5C 320.167,475.5 276.833,475.5 233.5,475.5C 233.908,494.87 233.408,514.203 232,533.5C 230.726,536.159 229.226,538.659 227.5,541C 223.679,541.686 220.012,542.686 216.5,544C 193.826,544.833 171.159,544.666 148.5,543.5C 140.304,543.464 135.804,539.464 135,531.5C 134.009,520.077 134.509,508.743 136.5,497.5C 139.883,493.554 144.216,491.22 149.5,490.5C 148.311,489.571 146.978,489.238 145.5,489.5C 150.252,487.932 152.586,484.599 152.5,479.5C 134.84,479.485 117.173,479.485 99.5,479.5C 92.3462,478.189 87.5129,474.189 85,467.5C 84.1678,454.133 84.5011,440.799 86,427.5C 87.7961,422.527 91.2961,420.194 96.5,420.5C 94.7838,422.447 92.6171,423.781 90,424.5C 88.0913,428.315 86.758,432.315 86,436.5C 85.1883,447.206 85.5216,457.873 87,468.5C 89.2455,472.415 92.4122,475.248 96.5,477C 115.83,477.5 135.164,477.667 154.5,477.5C 154.665,480.85 154.498,484.183 154,487.5C 153.075,488.047 152.242,488.713 151.5,489.5C 153.045,490.452 154.712,490.785 156.5,490.5C 156.807,484.907 156.473,479.407 155.5,474C 145.384,474.594 135.218,475.094 125,475.5C 117.5,475.167 110,474.833 102.5,474.5C 94.8773,474.54 90.2106,470.873 88.5,463.5C 87.0938,452.456 87.2605,441.456 89,430.5C 90.4578,428.04 92.2911,425.873 94.5,424C 99.7504,422.826 105.084,422.159 110.5,422C 111.14,417.732 111.807,413.565 112.5,409.5C 114.306,411.089 115.639,413.089 116.5,415.5C 117.251,414.624 117.751,413.624 118,412.5C 118.333,418.833 118.667,425.167 119,431.5C 119.17,425.804 119.67,420.138 120.5,414.5C 121.107,414.624 121.44,414.957 121.5,415.5C 121.739,417.467 121.406,419.301 120.5,421C 121.449,421.617 122.282,421.451 123,420.5C 123.278,421.416 123.778,422.082 124.5,422.5C 124.5,427.5 124.5,432.5 124.5,437.5C 117.167,437.5 109.833,437.5 102.5,437.5C 102.5,445.167 102.5,452.833 102.5,460.5C 110.167,460.5 117.833,460.5 125.5,460.5C 126.167,460.5 126.833,460.5 127.5,460.5C 134.677,461.819 142.01,461.819 149.5,460.5C 150.465,453.224 150.799,445.891 150.5,438.5C 164.5,438.5 178.5,438.5 192.5,438.5C 192.5,440.833 192.5,443.167 192.5,445.5C 192.5,449.5 192.5,453.5 192.5,457.5C 185.492,457.334 178.492,457.5 171.5,458C 169.878,459.295 168.545,460.795 167.5,462.5C 168.36,477.148 169.026,491.814 169.5,506.5C 162.5,506.5 155.5,506.5 148.5,506.5C 148.5,514.167 148.5,521.833 148.5,529.5C 156.167,529.5 163.833,529.5 171.5,529.5C 171.5,522.167 171.5,514.833 171.5,507.5C 179.087,508.631 186.754,508.798 194.5,508C 195.305,506.887 195.972,505.721 196.5,504.5C 197.496,490.677 197.829,476.677 197.5,462.5C 205.5,462.5 213.5,462.5 221.5,462.5C 221.62,460.266 221.287,458.099 220.5,456C 220.896,454.103 221.896,452.603 223.5,451.5C 222.24,450.618 221.074,449.618 220,448.5C 219.502,445.183 219.335,441.85 219.5,438.5C 226.588,438.205 233.588,438.538 240.5,439.5C 240.5,446.5 240.5,453.5 240.5,460.5C 270.5,460.5 300.5,460.5 330.5,460.5C 330.833,460.5 331.167,460.5 331.5,460.5C 346.991,461.496 362.658,461.83 378.5,461.5C 378.169,484.339 378.503,507.006 379.5,529.5C 394.167,529.5 408.833,529.5 423.5,529.5C 424.167,529.5 424.833,529.5 425.5,529.5C 426.332,499.669 426.832,469.669 427,439.5C 434.087,438.685 441.253,438.185 448.5,438C 450.215,437.223 451.215,435.89 451.5,434C 449.726,427.971 449.059,421.805 449.5,415.5C 456.687,415.825 463.687,415.491 470.5,414.5C 471.167,414.5 471.5,414.167 471.5,413.5C 472.491,406.687 472.825,399.687 472.5,392.5C 479.354,392.824 486.021,392.491 492.5,391.5C 493.492,391.672 494.158,391.338 494.5,390.5C 495.165,388.302 495.832,385.969 496.5,383.5C 497.5,339.838 497.833,296.172 497.5,252.5C 496.5,252.5 495.5,252.5 494.5,252.5C 493.833,252.5 493.167,252.5 492.5,252.5C 486.021,251.509 479.354,251.176 472.5,251.5C 472.829,236.657 472.496,221.99 471.5,207.5C 470.432,206.566 469.099,206.232 467.5,206.5C 461.69,205.51 455.69,205.177 449.5,205.5C 449.966,197.328 449.466,189.328 448,181.5C 440.921,182.48 433.755,182.813 426.5,182.5C 426.825,175.313 426.491,168.313 425.5,161.5C 425.5,161.167 425.5,160.833 425.5,160.5C 418.352,159.508 411.019,159.175 403.5,159.5C 403.829,144.324 403.496,129.324 402.5,114.5C 402.167,114.5 401.833,114.5 401.5,114.5C 394.687,113.509 387.687,113.175 380.5,113.5C 380.5,106.167 380.5,98.8333 380.5,91.5 Z"/></g>
<g><path style="opacity:1" fill="#cd8942" d="M 148.5,414.5 C 141.352,415.492 134.019,415.825 126.5,415.5C 126.333,429.504 126.5,443.504 127,457.5C 133.744,458.479 140.578,458.812 147.5,458.5C 147.176,451.646 147.509,444.979 148.5,438.5C 148.5,445.833 148.5,453.167 148.5,460.5C 141.5,460.5 134.5,460.5 127.5,460.5C 126.833,460.5 126.167,460.5 125.5,460.5C 125.5,452.833 125.5,445.167 125.5,437.5C 125.5,429.833 125.5,422.167 125.5,414.5C 133.167,414.5 140.833,414.5 148.5,414.5 Z"/></g>
<g><path style="opacity:1" fill="#d9a960" d="M 447.5,413.5 C 455.5,413.5 463.5,413.5 471.5,413.5C 471.5,414.167 471.167,414.5 470.5,414.5C 463.167,414.5 455.833,414.5 448.5,414.5C 448.825,422.019 448.492,429.352 447.5,436.5C 447.5,428.833 447.5,421.167 447.5,413.5 Z"/></g>
<g><path style="opacity:1" fill="#fef4cf" d="M 148.5,437.5 C 163.5,437.5 178.5,437.5 193.5,437.5C 193.5,440.167 193.5,442.833 193.5,445.5C 193.167,445.5 192.833,445.5 192.5,445.5C 192.5,443.167 192.5,440.833 192.5,438.5C 178.5,438.5 164.5,438.5 150.5,438.5C 150.799,445.891 150.465,453.224 149.5,460.5C 142.01,461.819 134.677,461.819 127.5,460.5C 134.5,460.5 141.5,460.5 148.5,460.5C 148.5,453.167 148.5,445.833 148.5,438.5C 148.5,438.167 148.5,437.833 148.5,437.5 Z"/></g>
<g><path style="opacity:1" fill="#f88c07" d="M 356.5,436.5 C 363.982,437.492 371.648,437.825 379.5,437.5C 379.372,444.651 379.372,451.651 379.5,458.5C 364.83,458.667 350.163,458.5 335.5,458C 334.521,451.256 334.188,444.422 334.5,437.5C 341.92,437.797 349.254,437.464 356.5,436.5 Z"/></g>
<g><path style="opacity:1" fill="#b9a17c" d="M 331.5,414.5 C 331.833,414.5 332.167,414.5 332.5,414.5C 332.333,429.17 332.5,443.837 333,458.5C 333.995,459.066 334.828,459.733 335.5,460.5C 334.5,460.5 333.5,460.5 332.5,460.5C 331.9,456.871 331.233,453.204 330.5,449.5C 327.828,451.425 326.828,454.092 327.5,457.5C 325.712,457.785 324.045,457.452 322.5,456.5C 324.874,453.972 325.874,450.972 325.5,447.5C 327.167,447.5 328.833,447.5 330.5,447.5C 330.19,436.419 330.523,425.419 331.5,414.5 Z"/></g>
<g><path style="opacity:1" fill="#484544" d="M 124.5,437.5 C 124.833,437.5 125.167,437.5 125.5,437.5C 125.5,445.167 125.5,452.833 125.5,460.5C 117.833,460.5 110.167,460.5 102.5,460.5C 102.5,452.833 102.5,445.167 102.5,437.5C 109.833,437.5 117.167,437.5 124.5,437.5 Z"/></g>
<g><path style="opacity:1" fill="#e09d56" d="M 425.5,437.5 C 425.5,468.167 425.5,498.833 425.5,529.5C 424.833,529.5 424.167,529.5 423.5,529.5C 423.5,529.167 423.5,528.833 423.5,528.5C 424.464,521.254 424.797,513.92 424.5,506.5C 424.169,483.327 424.502,460.327 425.5,437.5 Z"/></g>
<g><path style="opacity:1" fill="#fef4d1" d="M 470.5,414.5 C 463.687,415.491 456.687,415.825 449.5,415.5C 449.059,421.805 449.726,427.971 451.5,434C 451.215,435.89 450.215,437.223 448.5,438C 441.253,438.185 434.087,438.685 427,439.5C 426.832,469.669 426.332,499.669 425.5,529.5C 425.5,498.833 425.5,468.167 425.5,437.5C 433.019,437.825 440.352,437.492 447.5,436.5C 448.492,429.352 448.825,422.019 448.5,414.5C 455.833,414.5 463.167,414.5 470.5,414.5 Z"/></g>
<g><path style="opacity:1" fill="#fff4af" d="M 193.5,437.5 C 194.492,444.982 194.825,452.648 194.5,460.5C 187.5,460.5 180.5,460.5 173.5,460.5C 179.979,459.509 186.646,459.176 193.5,459.5C 193.5,454.833 193.5,450.167 193.5,445.5C 193.5,442.833 193.5,440.167 193.5,437.5 Z"/></g>
<g><path style="opacity:1" fill="#c0b7ad" d="M 240.5,437.5 C 241.492,444.648 241.825,451.981 241.5,459.5C 271.338,459.169 301.005,459.502 330.5,460.5C 300.5,460.5 270.5,460.5 240.5,460.5C 240.5,453.5 240.5,446.5 240.5,439.5C 240.5,438.833 240.5,438.167 240.5,437.5 Z"/></g>
<g><path style="opacity:1" fill="#e6bd57" d="M 148.5,437.5 C 163.658,436.504 178.991,436.17 194.5,436.5C 195.5,436.5 196.5,436.5 197.5,436.5C 196.543,443.477 196.377,450.477 197,457.5C 203.41,458.478 209.91,458.811 216.5,458.5C 216.5,451.5 216.5,444.5 216.5,437.5C 217.167,437.5 217.833,437.5 218.5,437.5C 218.666,444.841 218.5,452.174 218,459.5C 217.329,460.252 216.496,460.586 215.5,460.5C 208.833,460.5 202.167,460.5 195.5,460.5C 194.547,475.798 194.214,491.131 194.5,506.5C 186.913,506.814 179.413,506.481 172,505.5C 171.5,490.504 171.333,475.504 171.5,460.5C 172.167,460.5 172.833,460.5 173.5,460.5C 180.5,460.5 187.5,460.5 194.5,460.5C 194.825,452.648 194.492,444.982 193.5,437.5C 178.5,437.5 163.5,437.5 148.5,437.5 Z"/></g>
<g><path style="opacity:1" fill="#fcfdeb" d="M 218.5,437.5 C 225.5,437.5 232.5,437.5 239.5,437.5C 239.833,437.5 240.167,437.5 240.5,437.5C 240.5,438.167 240.5,438.833 240.5,439.5C 233.588,438.538 226.588,438.205 219.5,438.5C 219.335,441.85 219.502,445.183 220,448.5C 221.074,449.618 222.24,450.618 223.5,451.5C 221.896,452.603 220.896,454.103 220.5,456C 221.287,458.099 221.62,460.266 221.5,462.5C 213.5,462.5 205.5,462.5 197.5,462.5C 197.829,476.677 197.496,490.677 196.5,504.5C 196.5,490.167 196.5,475.833 196.5,461.5C 203.022,461.823 209.355,461.49 215.5,460.5C 216.496,460.586 217.329,460.252 218,459.5C 218.5,452.174 218.666,444.841 218.5,437.5 Z"/></g>
<g><path style="opacity:1" fill="#fbfdee" d="M 192.5,445.5 C 192.833,445.5 193.167,445.5 193.5,445.5C 193.5,450.167 193.5,454.833 193.5,459.5C 186.646,459.176 179.979,459.509 173.5,460.5C 172.833,460.5 172.167,460.5 171.5,460.5C 170.504,475.658 170.17,490.991 170.5,506.5C 170.167,506.5 169.833,506.5 169.5,506.5C 169.026,491.814 168.36,477.148 167.5,462.5C 168.545,460.795 169.878,459.295 171.5,458C 178.492,457.5 185.492,457.334 192.5,457.5C 192.5,453.5 192.5,449.5 192.5,445.5 Z"/></g>
<g><path style="opacity:1" fill="#fadcb1" d="M 331.5,460.5 C 331.833,460.5 332.167,460.5 332.5,460.5C 333.5,460.5 334.5,460.5 335.5,460.5C 350.167,460.5 364.833,460.5 379.5,460.5C 379.5,483.5 379.5,506.5 379.5,529.5C 378.503,507.006 378.169,484.339 378.5,461.5C 362.658,461.83 346.991,461.496 331.5,460.5 Z"/></g>
<g><path style="opacity:1" fill="#fef7be" d="M 171.5,460.5 C 171.333,475.504 171.5,490.504 172,505.5C 179.413,506.481 186.913,506.814 194.5,506.5C 194.214,491.131 194.547,475.798 195.5,460.5C 202.167,460.5 208.833,460.5 215.5,460.5C 209.355,461.49 203.022,461.823 196.5,461.5C 196.5,475.833 196.5,490.167 196.5,504.5C 195.972,505.721 195.305,506.887 194.5,508C 186.754,508.798 179.087,508.631 171.5,507.5C 171.5,506.833 171.167,506.5 170.5,506.5C 170.17,490.991 170.504,475.658 171.5,460.5 Z"/></g>
<g><path style="opacity:1" fill="#f1b727" d="M 173.5,504.5 C 179.5,504.5 185.5,504.5 191.5,504.5C 192.448,490.536 192.781,476.536 192.5,462.5C 186.167,462.5 179.833,462.5 173.5,462.5C 173.5,476.167 173.5,489.833 173.5,503.5C 172.504,489.677 172.171,475.677 172.5,461.5C 179.5,461.5 186.5,461.5 193.5,461.5C 193.5,476.167 193.5,490.833 193.5,505.5C 186.646,505.824 179.979,505.491 173.5,504.5 Z"/></g>
<g><path style="opacity:1" fill="#fab70d" d="M 173.5,504.5 C 173.5,504.167 173.5,503.833 173.5,503.5C 173.5,489.833 173.5,476.167 173.5,462.5C 179.833,462.5 186.167,462.5 192.5,462.5C 192.781,476.536 192.448,490.536 191.5,504.5C 185.5,504.5 179.5,504.5 173.5,504.5 Z"/></g>
<g><path style="opacity:1" fill="#c1aa94" d="M 89.5,514.5 C 92.0892,515.419 94.0892,517.086 95.5,519.5C 92.9108,518.581 90.9108,516.914 89.5,514.5 Z"/></g>
<g><path style="opacity:1" fill="#db943b" d="M 332.5,414.5 C 332.833,414.5 333.167,414.5 333.5,414.5C 333.175,422.019 333.508,429.352 334.5,436.5C 334.5,436.833 334.5,437.167 334.5,437.5C 334.188,444.422 334.521,451.256 335.5,458C 350.163,458.5 364.83,458.667 379.5,458.5C 380.355,459.531 381.022,460.697 381.5,462C 380.524,476.797 380.191,491.631 380.5,506.5C 380.5,513.833 380.5,521.167 380.5,528.5C 394.833,528.5 409.167,528.5 423.5,528.5C 423.5,528.833 423.5,529.167 423.5,529.5C 408.833,529.5 394.167,529.5 379.5,529.5C 379.5,506.5 379.5,483.5 379.5,460.5C 364.833,460.5 350.167,460.5 335.5,460.5C 334.828,459.733 333.995,459.066 333,458.5C 332.5,443.837 332.333,429.17 332.5,414.5 Z"/></g>
<g><path style="opacity:1" fill="#bbaa8a" d="M 116.5,537.5 C 118.749,538.08 120.415,539.413 121.5,541.5C 119.251,540.92 117.585,539.587 116.5,537.5 Z"/></g>
<g><path style="opacity:1" fill="#dcdcdc" d="M 494.5,405.5 C 496.527,405.338 498.527,405.505 500.5,406C 496.755,407.783 492.755,408.616 488.5,408.5C 488.474,413.267 487.807,417.934 486.5,422.5C 486.649,423.552 486.483,424.552 486,425.5C 481.066,429.876 475.233,431.71 468.5,431C 467.667,431.833 466.833,432.667 466,433.5C 465,437.833 464,442.167 463,446.5C 462.215,448.286 461.049,449.786 459.5,451C 454.385,453.067 449.219,454.901 444,456.5C 443.667,481.5 443.333,506.5 443,531.5C 441.658,538.37 437.825,543.203 431.5,546C 410.82,546.734 390.153,546.568 369.5,545.5C 365.814,542.329 363.314,538.329 362,533.5C 361.5,514.836 361.333,496.17 361.5,477.5C 319.5,477.5 277.5,477.5 235.5,477.5C 235.667,496.17 235.5,514.836 235,533.5C 234.158,536.839 232.658,539.839 230.5,542.5C 228.97,544.941 226.637,546.108 223.5,546C 196.5,546.667 169.5,546.667 142.5,546C 136.471,543.309 132.638,538.809 131,532.5C 130.333,523.5 130.333,514.5 131,505.5C 131.522,499.763 134.022,495.096 138.5,491.5C 140.618,490.054 142.951,489.387 145.5,489.5C 146.978,489.238 148.311,489.571 149.5,490.5C 144.216,491.22 139.883,493.554 136.5,497.5C 134.509,508.743 134.009,520.077 135,531.5C 135.804,539.464 140.304,543.464 148.5,543.5C 171.159,544.666 193.826,544.833 216.5,544C 220.012,542.686 223.679,541.686 227.5,541C 229.226,538.659 230.726,536.159 232,533.5C 233.408,514.203 233.908,494.87 233.5,475.5C 276.833,475.5 320.167,475.5 363.5,475.5C 363.167,492.513 363.501,509.513 364.5,526.5C 365.028,531.417 366.362,536.084 368.5,540.5C 371.928,542.225 375.595,543.392 379.5,544C 396.94,545.155 414.273,544.488 431.5,542C 436.251,540.157 439.085,536.657 440,531.5C 440.5,504.835 440.667,478.169 440.5,451.5C 446.615,451.46 452.615,450.626 458.5,449C 462.049,443.043 463.715,436.543 463.5,429.5C 468.27,429.308 472.936,428.475 477.5,427C 479.848,426.654 481.681,425.487 483,423.5C 485.512,418.109 486.678,412.442 486.5,406.5C 489.385,406.806 492.052,406.473 494.5,405.5 Z"/></g>
<g><path style="opacity:1" fill="#f78d08" d="M 380.5,506.5 C 395.167,506.5 409.833,506.5 424.5,506.5C 424.797,513.92 424.464,521.254 423.5,528.5C 409.167,528.5 394.833,528.5 380.5,528.5C 380.5,521.167 380.5,513.833 380.5,506.5 Z"/></g>
<g><path style="opacity:1" fill="#454546" d="M 169.5,506.5 C 169.833,506.5 170.167,506.5 170.5,506.5C 171.167,506.5 171.5,506.833 171.5,507.5C 171.5,514.833 171.5,522.167 171.5,529.5C 163.833,529.5 156.167,529.5 148.5,529.5C 148.5,521.833 148.5,514.167 148.5,506.5C 155.5,506.5 162.5,506.5 169.5,506.5 Z"/></g>
<g><path style="opacity:1" fill="#f1f1f1" d="M 369.5,545.5 C 368.167,545.5 366.833,545.5 365.5,545.5C 364.56,542.286 363.06,539.286 361,536.5C 360.667,534.5 360.333,532.5 360,530.5C 359.779,513.71 359.279,497.21 358.5,481C 357.5,480.5 356.5,480 355.5,479.5C 316.678,479.515 277.678,479.515 238.5,479.5C 238.493,495.629 238.493,511.796 238.5,528C 238.389,529.722 237.889,529.888 237,528.5C 236.727,533.467 235.561,538.134 233.5,542.5C 232.5,542.5 231.5,542.5 230.5,542.5C 232.658,539.839 234.158,536.839 235,533.5C 235.5,514.836 235.667,496.17 235.5,477.5C 277.5,477.5 319.5,477.5 361.5,477.5C 361.333,496.17 361.5,514.836 362,533.5C 363.314,538.329 365.814,542.329 369.5,545.5 Z"/></g>
<g><path style="opacity:0.502" fill="#988157" d="M 474.5,543.5 C 474.179,545.048 473.179,545.715 471.5,545.5C 472.29,544.599 473.29,543.932 474.5,543.5 Z"/></g>
<g><path style="opacity:0.337" fill="#ab916a" d="M 450.5,559.5 C 449.486,560.674 448.153,561.34 446.5,561.5C 447.287,559.896 448.62,559.229 450.5,559.5 Z"/></g>
<g><path style="opacity:1" fill="#c5b199" d="M 204.5,584.5 C 207.228,584.171 209.562,584.837 211.5,586.5C 211.565,586.938 211.399,587.272 211,587.5C 208.706,586.578 206.539,585.578 204.5,584.5 Z"/></g>
</svg>
